<svg width="22" height="22" viewBox="0 0 22 22" fill="none" xmlns="http://www.w3.org/2000/svg">
<path d="M1.42209 19.1121L19.7046 0.829662C20.121 0.413228 20.8115 0.413089 21.2278 0.829356C21.6441 1.24562 21.6439 1.93616 21.2275 2.35259L2.94502 20.6351C2.52858 21.0515 1.83805 21.0516 1.42179 20.6354C1.00552 20.2191 1.00566 19.5286 1.42209 19.1121Z" fill="white"/>
<path d="M1.42209 2.35271L19.7046 20.6352C20.121 21.0516 20.8115 21.0518 21.2278 20.6355C21.6441 20.2192 21.6439 19.5287 21.2275 19.1123L2.94502 0.829785C2.52858 0.41335 1.83805 0.413212 1.42179 0.829479C1.00552 1.24575 1.00566 1.93628 1.42209 2.35271Z" fill="white"/>
</svg>
